<svg xmlns="http://www.w3.org/2000/svg" xmlns:xlink="http://www.w3.org/1999/xlink" x="0" y="0" width="662" height="302" style="
        width:662px;
        height:302px;
        background: transparent;
        fill: none;
">
        
        <g transform="matrix(1,0,0,1,13,27)"> <svg class="main-svg" xmlns="http://www.w3.org/2000/svg" xmlns:xlink="http://www.w3.org/1999/xlink" width="129" height="114" style="" viewBox="0 0 129 114"><rect x="0" y="0" width="129" height="114" style="fill: rgb(255, 255, 255); fill-opacity: 1;"/><defs id="defs-899507"><g class="clips"><clipPath id="clip899507xyplot" class="plotclip"><rect width="129" height="114"/></clipPath><clipPath class="axesclip" id="clip899507x"><rect x="0" y="0" width="129" height="114"/></clipPath><clipPath class="axesclip" id="clip899507y"><rect x="0" y="0" width="129" height="114"/></clipPath><clipPath class="axesclip" id="clip899507xy"><rect x="0" y="0" width="129" height="114"/></clipPath></g><g class="gradients"/></defs><g class="bglayer"/><g class="layer-below"><g class="imagelayer"/><g class="shapelayer"/></g><g class="cartesianlayer"><g class="subplot xy"><g class="layer-subplot"><g class="shapelayer"/><g class="imagelayer"/></g><g class="gridlayer"><g class="x"/><g class="y"/></g><g class="zerolinelayer"/><path class="xlines-below"/><path class="ylines-below"/><g class="overlines-below"/><g class="xaxislayer-below"/><g class="yaxislayer-below"/><g class="overaxes-below"/><g class="plot" transform="translate(0, 0)" clip-path="url('#clip899507xyplot')"><g class="scatterlayer mlayer"><g class="trace scatter trace8ba056" style="stroke-miterlimit: 2; opacity: 1;"><g class="fills"/><g class="errorbars"/><g class="lines"><path class="js-line" d="M58.11,94.77L66.05,96.49L65.93,96.85L65.29,99.85L66.38,99.95L90.54,101L94.4,106.86L94.89,106.66L95.48,107.05L99.1,108.25L99.58,108.29L103.09,107.78L103.48,107.62L106.47,105.57L106.73,105.28L108.36,102.23L108.46,101.86L108.45,98.4L108.35,98.02L106.81,95.1L106.52,94.77L106.01,93.49L106.31,93.15L115.69,81.38L115.32,80.96L114.29,79.69L114.92,78.72L126.74,59.4L126.68,58.2L125.98,53.44L124.75,53.3L123.87,38.43L123.74,36.37L123.63,34.18L124.32,30.48L129,12.6L128.76,9.32L127.61,7.72L125.95,7.18L119.08,5.7L88.19,90.55L73.26,78.97L71.7,77.77L22.89,40.23L22.53,41.82L22.57,43.69L19.67,43.25L17.93,43.77L17.04,44.95L11.4,53.51L11.54,55.23L12.9,57.53L12.79,59.03L9.1,58.85L17.42,64.11L18.02,65.75L16.26,66.39L15.68,67.54L15.97,69L16.64,70.57L15.54,71.51L3.11,72.02L2.68,73.41L0,84.67L1.55,86.28L58.11,94.77" style="vector-effect: non-scaling-stroke; fill: none; stroke: rgb(255, 255, 255); stroke-opacity: 1; stroke-width: 2px; opacity: 1;"/></g><g class="points"/><g class="text"/></g><g class="trace scatter traceec8000" style="stroke-miterlimit: 2; opacity: 1;"><g class="fills"/><g class="errorbars"/><g class="lines"><path class="js-line" d="M1.83,94.77L1.87,101.81L7.1,102.71L68.92,100.59L69.04,100.88L69.02,104.09L69.92,103.98L94.08,100.41L101.62,105.8L105.18,105.7L105.68,105.56L108.67,104.03L109.01,103.74L111.07,100.95L111.23,100.56L111.73,97.26L111.69,96.84L110.53,93.59L110.28,93.21L107.77,90.89L107.32,90.62L114.45,76.37L113.97,76.01L112.94,74.66L113.33,73.61L120.88,53.33L120.55,52.22L119.22,47.35L89.49,90.61L14.92,53.83L14.93,55.44L15.36,57.24L12.37,57.26L10.82,58.08L10.22,59.37L6.56,68.58L6.41,70.01L8.6,72.11L9.06,73.64L6.51,74.38L11.09,76.88L16.37,79.36L14.23,80.15L13.48,81.26L13.91,82.59L14.8,85.18L13.07,86.19L2.68,87.79L2.18,89.16L1.83,94.77" style="vector-effect: non-scaling-stroke; fill: none; stroke: rgb(31, 119, 180); stroke-opacity: 1; stroke-width: 2px; opacity: 1;"/></g><g class="points"/><g class="text"/></g></g></g><g class="overplot"/><path class="xlines-above crisp" d="M0,0" style="fill: none;"/><path class="ylines-above crisp" d="M0,0" style="fill: none;"/><g class="overlines-above"/><g class="xaxislayer-above"/><g class="yaxislayer-above"/><g class="overaxes-above"/></g></g><g class="polarlayer"/><g class="ternarylayer"/><g class="geolayer"/><g class="funnelarealayer"/><g class="pielayer"/><g class="treemaplayer"/><g class="sunburstlayer"/><g class="glimages"/><defs id="topdefs-899507"><g class="clips"/></defs><g class="layer-above"><g class="imagelayer"/><g class="shapelayer"/></g><g class="infolayer"><g class="g-gtitle"/><g class="g-xtitle" transform="translate(0,-38)"><text class="xtitle" x="64.5" y="152" text-anchor="middle" style="font-family: 'Open Sans', verdana, arial, sans-serif; font-size: 14px; fill: rgb(68, 68, 68); opacity: 1; font-weight: normal; white-space: pre;"><tspan class="line" dy="0em" x="64.5" y="152"></tspan><tspan class="line" dy="1.3em" x="64.5" y="152"></tspan></text></g><g class="g-ytitle"><text class="ytitle" transform="rotate(-90,-31,57)" x="-31" y="57" text-anchor="middle" style="font-family: 'Open Sans', verdana, arial, sans-serif; font-size: 14px; fill: rgb(68, 68, 68); opacity: 1; font-weight: normal; white-space: pre;"><tspan class="line" dy="0em" x="-31" y="57"></tspan><tspan class="line" dy="1.3em" x="-31" y="57"></tspan></text></g></g></svg></g>
<g transform="matrix(1,0,0,1,241,83)"> <svg class="main-svg" xmlns="http://www.w3.org/2000/svg" xmlns:xlink="http://www.w3.org/1999/xlink" width="112" height="127" style="" viewBox="0 0 112 127"><rect x="0" y="0" width="112" height="127" style="fill: rgb(255, 255, 255); fill-opacity: 1;"/><defs id="defs-020a7f"><g class="clips"><clipPath id="clip020a7fxyplot" class="plotclip"><rect width="112" height="127"/></clipPath><clipPath class="axesclip" id="clip020a7fx"><rect x="0" y="0" width="112" height="127"/></clipPath><clipPath class="axesclip" id="clip020a7fy"><rect x="0" y="0" width="112" height="127"/></clipPath><clipPath class="axesclip" id="clip020a7fxy"><rect x="0" y="0" width="112" height="127"/></clipPath></g><g class="gradients"/></defs><g class="bglayer"/><g class="layer-below"><g class="imagelayer"/><g class="shapelayer"/></g><g class="cartesianlayer"><g class="subplot xy"><g class="layer-subplot"><g class="shapelayer"/><g class="imagelayer"/></g><g class="gridlayer"><g class="x"/><g class="y"/></g><g class="zerolinelayer"/><path class="xlines-below"/><path class="ylines-below"/><g class="overlines-below"/><g class="xaxislayer-below"/><g class="yaxislayer-below"/><g class="overaxes-below"/><g class="plot" transform="translate(0, 0)" clip-path="url('#clip020a7fxyplot')"><g class="scatterlayer mlayer"><g class="trace scatter trace350bbb" style="stroke-miterlimit: 2; opacity: 1;"><g class="fills"/><g class="errorbars"/><g class="lines"><path class="js-line" d="M0.05,108.43L0.09,116.15L5.01,117.13L63.14,114.81L63.26,115.13L63.24,118.64L64.08,118.53L86.8,114.61L93.89,120.51L97.24,120.4L97.71,120.26L100.52,118.57L100.84,118.25L102.78,115.2L102.93,114.78L103.36,110.7L103.3,110.24L102.03,106.72L101.77,106.32L99.45,103.44L99.67,102.98L105.95,88.27L105.5,87.87L104.54,87.16L104.53,86.39L112,63.03L111.69,61.8L110.44,56.47L82.48,103.87L43.01,80.93L35.51,76.57L12.36,63.57L12.37,65.34L12.77,67.31L9.96,67.33L8.5,68.22L7.93,69.64L4.5,79.74L4.36,81.3L6.42,83.6L6.85,85.28L4.45,86.09L8.76,88.83L13.72,91.54L11.71,92.41L11.01,93.63L11.4,95.08L12.24,97.92L10.62,99.03L0.85,100.79L0.38,102.29L0.05,108.43" style="vector-effect: non-scaling-stroke; fill: none; stroke: rgb(31, 119, 180); stroke-opacity: 1; stroke-width: 2px; opacity: 1;"/></g><g class="points"/><g class="text"/></g><g class="trace scatter trace9dcf8e" style="stroke-miterlimit: 2; opacity: 1;"><g class="fills"/><g class="errorbars"/><g class="lines"><path class="js-line" d="M55.63,114.67L63.28,114.86L63.25,115.27L63.25,118.62L64.28,118.5L86.74,114.61L91.47,120.09L91.88,119.78L92.49,120.07L96.07,120.61L96.52,120.55L99.65,119.27L99.98,119.02L102.33,116.2L102.51,115.83L103.41,112.22L103.42,111.8L102.73,108.09L102.56,107.7L100.57,104.89L100.23,104.59L99.51,103.33L99.71,102.9L106.02,88.31L105.59,87.94L104.4,86.78L104.78,85.61L111.84,62.41L111.54,61.14L109.95,56.17L108.8,56.28L105.02,40.5L104.5,38.31L103.96,35.98L103.86,31.87L104.63,11.7L103.75,8.23L102.37,6.75L100.74,6.52L94.12,6.36L82.51,103.88L40.09,79.25L28.3,72.41L12.35,63.45L12.33,65.23L12.74,67.23L9.99,67.36L8.48,68.29L7.9,69.74L4.4,80.1L4.87,81.92L6.59,84.1L6.78,85.74L3.34,86.31L12.05,90.22L12.93,91.86L11.44,92.92L11.13,94.27L11.69,95.78L12.62,97.32L11.79,98.57L0.44,101.7L0.32,103.27L0.09,115.92L1.84,117.33L55.63,114.67" style="vector-effect: non-scaling-stroke; fill: none; stroke: rgb(208, 2, 27); stroke-opacity: 1; stroke-width: 2px; opacity: 1;"/></g><g class="points"/><g class="text"/></g></g></g><g class="overplot"/><path class="xlines-above crisp" d="M0,0" style="fill: none;"/><path class="ylines-above crisp" d="M0,0" style="fill: none;"/><g class="overlines-above"/><g class="xaxislayer-above"/><g class="yaxislayer-above"/><g class="overaxes-above"/></g></g><g class="polarlayer"/><g class="ternarylayer"/><g class="geolayer"/><g class="funnelarealayer"/><g class="pielayer"/><g class="treemaplayer"/><g class="sunburstlayer"/><g class="glimages"/><defs id="topdefs-020a7f"><g class="clips"/></defs><g class="layer-above"><g class="imagelayer"/><g class="shapelayer"/></g><g class="infolayer"><g class="g-gtitle"/><g class="g-xtitle" transform="translate(0,-38)"><text class="xtitle" x="56" y="165" text-anchor="middle" style="font-family: 'Open Sans', verdana, arial, sans-serif; font-size: 14px; fill: rgb(68, 68, 68); opacity: 1; font-weight: normal; white-space: pre;"><tspan class="line" dy="0em" x="56" y="165"></tspan><tspan class="line" dy="1.3em" x="56" y="165"></tspan></text></g><g class="g-ytitle"><text class="ytitle" transform="rotate(-90,-31,63.5)" x="-31" y="63.5" text-anchor="middle" style="font-family: 'Open Sans', verdana, arial, sans-serif; font-size: 14px; fill: rgb(68, 68, 68); opacity: 1; font-weight: normal; white-space: pre;"><tspan class="line" dy="0em" x="-31" y="63.5"></tspan><tspan class="line" dy="1.3em" x="-31" y="63.5"></tspan></text></g></g></svg></g>
<g transform="matrix(1,0,0,1,13,147)"> <svg class="main-svg" xmlns="http://www.w3.org/2000/svg" xmlns:xlink="http://www.w3.org/1999/xlink" width="129" height="114" style="" viewBox="0 0 129 114"><rect x="0" y="0" width="129" height="114" style="fill: rgb(255, 255, 255); fill-opacity: 1;"/><defs id="defs-687c94"><g class="clips"><clipPath id="clip687c94xyplot" class="plotclip"><rect width="129" height="114"/></clipPath><clipPath class="axesclip" id="clip687c94x"><rect x="0" y="0" width="129" height="114"/></clipPath><clipPath class="axesclip" id="clip687c94y"><rect x="0" y="0" width="129" height="114"/></clipPath><clipPath class="axesclip" id="clip687c94xy"><rect x="0" y="0" width="129" height="114"/></clipPath></g><g class="gradients"/></defs><g class="bglayer"/><g class="layer-below"><g class="imagelayer"/><g class="shapelayer"/></g><g class="cartesianlayer"><g class="subplot xy"><g class="layer-subplot"><g class="shapelayer"/><g class="imagelayer"/></g><g class="gridlayer"><g class="x"/><g class="y"/></g><g class="zerolinelayer"/><path class="xlines-below"/><path class="ylines-below"/><g class="overlines-below"/><g class="xaxislayer-below"/><g class="yaxislayer-below"/><g class="overaxes-below"/><g class="plot" transform="translate(0, 0)" clip-path="url('#clip687c94xyplot')"><g class="scatterlayer mlayer"><g class="trace scatter traceb95150" style="stroke-miterlimit: 2; opacity: 1;"><g class="fills"/><g class="errorbars"/><g class="lines"><path class="js-line" d="M1.83,94.77L1.87,101.81L7.1,102.71L68.92,100.59L69.04,100.88L69.02,104.09L69.92,103.98L94.08,100.41L101.62,105.8L105.18,105.7L105.68,105.56L108.67,104.03L109.01,103.74L111.07,100.95L111.23,100.56L111.73,97.26L111.69,96.84L110.53,93.59L110.28,93.21L107.77,90.89L107.32,90.62L114.45,76.37L113.97,76.01L112.94,74.66L113.33,73.61L120.88,53.33L120.55,52.22L119.22,47.35L89.49,90.61L14.92,53.83L14.93,55.44L15.36,57.24L12.37,57.26L10.82,58.08L10.22,59.37L6.56,68.58L6.41,70.01L8.6,72.11L9.06,73.64L6.51,74.38L11.09,76.88L16.37,79.36L14.23,80.15L13.48,81.26L13.91,82.59L14.8,85.18L13.07,86.19L2.68,87.79L2.18,89.16L1.83,94.77" style="vector-effect: non-scaling-stroke; fill: none; stroke: rgb(255, 255, 255); stroke-opacity: 1; stroke-width: 2px; opacity: 1;"/></g><g class="points"/><g class="text"/></g><g class="trace scatter traceb33574" style="stroke-miterlimit: 2; opacity: 1;"><g class="fills"/><g class="errorbars"/><g class="lines"><path class="js-line" d="M58.11,94.77L66.05,96.49L65.93,96.85L65.29,99.85L66.38,99.95L90.54,101L94.4,106.86L94.89,106.66L95.48,107.05L99.1,108.25L99.58,108.29L103.09,107.78L103.48,107.62L106.47,105.57L106.73,105.28L108.36,102.23L108.46,101.86L108.45,98.4L108.35,98.02L106.81,95.1L106.52,94.77L106.01,93.49L106.31,93.15L115.69,81.38L115.32,80.96L114.29,79.69L114.92,78.72L126.74,59.4L126.68,58.2L125.98,53.44L124.75,53.3L123.87,38.43L123.74,36.37L123.63,34.18L124.32,30.48L129,12.6L128.76,9.32L127.61,7.72L125.95,7.18L119.08,5.7L88.19,90.55L73.26,78.97L71.7,77.77L22.89,40.23L22.53,41.82L22.57,43.69L19.67,43.25L17.93,43.77L17.04,44.95L11.4,53.51L11.54,55.23L12.9,57.53L12.79,59.03L9.1,58.85L17.42,64.11L18.02,65.75L16.26,66.39L15.68,67.54L15.97,69L16.64,70.57L15.54,71.51L3.11,72.02L2.68,73.41L0,84.67L1.55,86.28L58.11,94.77" style="vector-effect: non-scaling-stroke; fill: none; stroke: rgb(208, 2, 27); stroke-opacity: 1; stroke-width: 2px; opacity: 1;"/></g><g class="points"/><g class="text"/></g></g></g><g class="overplot"/><path class="xlines-above crisp" d="M0,0" style="fill: none;"/><path class="ylines-above crisp" d="M0,0" style="fill: none;"/><g class="overlines-above"/><g class="xaxislayer-above"/><g class="yaxislayer-above"/><g class="overaxes-above"/></g></g><g class="polarlayer"/><g class="ternarylayer"/><g class="geolayer"/><g class="funnelarealayer"/><g class="pielayer"/><g class="treemaplayer"/><g class="sunburstlayer"/><g class="glimages"/><defs id="topdefs-687c94"><g class="clips"/></defs><g class="layer-above"><g class="imagelayer"/><g class="shapelayer"/></g><g class="infolayer"><g class="g-gtitle"/><g class="g-xtitle" transform="translate(0,-38)"><text class="xtitle" x="64.5" y="152" text-anchor="middle" style="font-family: 'Open Sans', verdana, arial, sans-serif; font-size: 14px; fill: rgb(68, 68, 68); opacity: 1; font-weight: normal; white-space: pre;"><tspan class="line" dy="0em" x="64.5" y="152"></tspan><tspan class="line" dy="1.3em" x="64.5" y="152"></tspan></text></g><g class="g-ytitle"><text class="ytitle" transform="rotate(-90,-31,57)" x="-31" y="57" text-anchor="middle" style="font-family: 'Open Sans', verdana, arial, sans-serif; font-size: 14px; fill: rgb(68, 68, 68); opacity: 1; font-weight: normal; white-space: pre;"><tspan class="line" dy="0em" x="-31" y="57"></tspan><tspan class="line" dy="1.3em" x="-31" y="57"></tspan></text></g></g></svg></g>
        <svg xmlns="http://www.w3.org/2000/svg" class="role-diagram-draw-area"><g class="shapes-region" style="stroke: black; fill: none;"><g class="composite-shape"><rect class="real" rx="0" ry="0" x="241" y="83" width="112" height="127" style="stroke: none;"/></g><g class="composite-shape"><rect class="real" rx="0" ry="0" x="13" y="147" width="129" height="114" style="stroke: none;"/></g><g class="composite-shape"><rect class="real" rx="0" ry="0" x="13" y="27" width="129" height="114" style="stroke: none;"/></g><g class="arrow-line"><path class="connection real" stroke-dasharray="" d="  M323,193.2 L359.06,184.47" style="stroke: rgb(208, 2, 27); stroke-opacity: 1; stroke-width: 1; fill: none; fill-opacity: 1;"/><g stroke="rgb(208,2,27)" stroke-opacity="1" transform="matrix(-0.9719199457341045,0.23531174871692098,-0.23531174871692098,-0.9719199457341045,361.00000000000006,183.99999999999997)" style="stroke: rgb(208, 2, 27); stroke-width: 1;"><path d=" M10.93,-3.29 Q4.96,-0.45 0,0 Q4.96,0.45 10.93,3.29"/></g><g stroke="rgb(208,2,27)" stroke-opacity="1" fill="rgb(208,2,27)" fill-opacity="1" transform="matrix(0.9719199457341046,-0.23531174871692087,0.23531174871692087,0.9719199457341046,323,193.1999969482422)" style="stroke: rgb(208, 2, 27); fill: rgb(208, 2, 27); stroke-width: 1;"><circle cx="0" cy="0" r="3.35"/></g></g><g class="arrow-line"><path class="connection real" stroke-dasharray="" d="  M100,122.2 L135,122.2" style="stroke: rgb(31, 119, 180); stroke-opacity: 1; stroke-width: 1; fill: none; fill-opacity: 1;"/><g stroke="rgb(31,119,180)" stroke-opacity="1" transform="matrix(-1,1.2246467991473532e-16,-1.2246467991473532e-16,-1,136.99999999999997,122.1999969482422)" style="stroke: rgb(31, 119, 180); stroke-width: 1;"><path d=" M10.93,-3.29 Q4.96,-0.45 0,0 Q4.96,0.45 10.93,3.29"/></g><g stroke="rgb(31,119,180)" stroke-opacity="1" fill="rgb(31,119,180)" fill-opacity="1" transform="matrix(1,0,0,1,100,122.19999694824219)" style="stroke: rgb(31, 119, 180); fill: rgb(31, 119, 180); stroke-width: 1;"><circle cx="0" cy="0" r="3.35"/></g></g><g class="arrow-line"><path class="connection real" stroke-dasharray="" d="  M100,242.2 L135,242.2" style="stroke: rgb(208, 2, 27); stroke-opacity: 1; stroke-width: 1; fill: none; fill-opacity: 1;"/><g stroke="rgb(208,2,27)" stroke-opacity="1" transform="matrix(-1,1.2246467991473532e-16,-1.2246467991473532e-16,-1,136.99999999999997,242.19999694824222)" style="stroke: rgb(208, 2, 27); stroke-width: 1;"><path d=" M10.93,-3.29 Q4.96,-0.45 0,0 Q4.96,0.45 10.93,3.29"/></g><g stroke="rgb(208,2,27)" stroke-opacity="1" fill="rgb(208,2,27)" fill-opacity="1" transform="matrix(1,0,0,1,100,242.1999969482422)" style="stroke: rgb(208, 2, 27); fill: rgb(208, 2, 27); stroke-width: 1;"><circle cx="0" cy="0" r="3.35"/></g></g><g class="arrow-line"><path class="connection real" stroke-dasharray="" d="  M321,191.2 L356,191.2" style="stroke: rgb(31, 119, 180); stroke-opacity: 1; stroke-width: 1; fill: none; fill-opacity: 1;"/><g stroke="rgb(31,119,180)" stroke-opacity="1" transform="matrix(-1,1.2246467991473532e-16,-1.2246467991473532e-16,-1,358,191.1999969482422)" style="stroke: rgb(31, 119, 180); stroke-width: 1;"><path d=" M10.93,-3.29 Q4.96,-0.45 0,0 Q4.96,0.45 10.93,3.29"/></g><g stroke="rgb(31,119,180)" stroke-opacity="1" fill="rgb(31,119,180)" fill-opacity="1" transform="matrix(1,0,0,1,321,191.1999969482422)" style="stroke: rgb(31, 119, 180); fill: rgb(31, 119, 180); stroke-width: 1;"><circle cx="0" cy="0" r="3.35"/></g></g><g class="composite-shape"><path class="real" d=" M194,146.67 C194,141.24 198.7,136.83 204.5,136.83 C210.3,136.83 215,141.24 215,146.67 C215,152.1 210.3,156.5 204.5,156.5 C198.7,156.5 194,152.1 194,146.67 Z" style="stroke-width: 1; stroke: rgb(0, 0, 0); fill: none; fill-opacity: 1;"/><path class="real" d=" M197.08,139.71 L211.92,153.62" style="stroke-width: 1; stroke: rgb(0, 0, 0); fill: none; fill-opacity: 1;"/><path class="real" d=" M211.92,139.71 L197.08,153.62" style="stroke-width: 1; stroke: rgb(0, 0, 0); fill: none; fill-opacity: 1;"/></g><g class="arrow-line"><path class="connection real" stroke-dasharray="" d="  M150.33,206.33 L170,206" style="stroke: rgb(208, 2, 27); stroke-opacity: 1; stroke-width: 1; fill: none; fill-opacity: 1;"/></g><g class="arrow-line"><path class="connection real" stroke-dasharray="" d="  M150.33,80.33 L170,80.5" style="stroke: rgb(31, 119, 180); stroke-opacity: 1; stroke-width: 1; fill: none; fill-opacity: 1;"/></g><g class="arrow-line"><path class="connection real" stroke-dasharray="" d="  M170,146.5 L170,206.5" style="stroke: rgb(208, 2, 27); stroke-width: 1; fill: none; fill-opacity: 1; stroke-opacity: 1;"/></g><g class="arrow-line"><path class="connection real" stroke-dasharray="" d="  M194,146.67 L170,146.5" style="stroke: rgb(0, 0, 0); stroke-width: 1; fill: none; fill-opacity: 1;"/></g><g class="composite-shape"><path class="real" d=" M215,144.25 L229.4,144.25 L229.4,141.83 L239,146.67 L229.4,151.5 L229.4,149.08 L215,149.08 Z" style="stroke-width: 1; stroke: rgb(0, 0, 0); fill: none; fill-opacity: 1;"/></g><g class="composite-shape"><path class="real" d=" M11,145 L145,145 L145,258 L11,258 Z" style="stroke-width: 1; stroke: rgb(0, 0, 0); fill: none; fill-opacity: 1;"/></g><g class="composite-shape"><path class="real" d=" M11,28 L145,28 L145,141 L11,141 Z" style="stroke-width: 1; stroke: rgb(0, 0, 0); fill: none; fill-opacity: 1;"/></g><g class="arrow-line"><path class="connection real" stroke-dasharray="" d="  M170,80.5 L170,146.5" style="stroke: rgb(31, 119, 180); stroke-opacity: 1; stroke-width: 1; fill: none; fill-opacity: 1;"/></g><g/></g><g/><g/><g/></svg>
        <svg xmlns="http://www.w3.org/2000/svg" xmlns:xlink="http://www.w3.org/1999/xlink" width="660" height="300" style="width:660px;height:300px;font-family:Asana-Math, Asana;background:transparent;"><g><g><g><text x="195" y="118" style="white-space:pre;stroke:none;fill:rgb(0,0,0);fill-opacity:1;font-size:15px;font-family:Arial, Helvetica, sans-serif;font-weight:400;font-style:normal;dominant-baseline:text-before-edge;text-decoration:none solid rgb(0, 0, 0);">sm</text></g></g></g><g><g><g><text x="23" y="58" style="white-space:pre;stroke:none;fill:rgb(0,0,0);fill-opacity:1;font-size:15px;font-family:Arial, Helvetica, sans-serif;font-weight:400;font-style:normal;dominant-baseline:text-before-edge;text-decoration:none solid rgb(0, 0, 0);">z</text></g></g></g><g><g><g><text x="23" y="165" style="white-space:pre;stroke:none;fill:rgb(0,0,0);fill-opacity:1;font-size:15px;font-family:Arial, Helvetica, sans-serif;font-weight:400;font-style:normal;dominant-baseline:text-before-edge;text-decoration:none solid rgb(0, 0, 0);">z&#x27;</text></g></g></g><g><g><g><text x="94" y="94" style="white-space:pre;stroke:none;fill:rgb(0,0,0);fill-opacity:1;font-size:15px;font-family:Arial, Helvetica, sans-serif;font-weight:400;font-style:normal;dominant-baseline:text-before-edge;text-decoration:none solid rgb(0, 0, 0);">p</text></g></g></g><g><g><g><text x="94" y="264" style="white-space:pre;stroke:none;fill:rgb(0,0,0);fill-opacity:1;font-size:15px;font-family:Arial, Helvetica, sans-serif;font-weight:400;font-style:normal;dominant-baseline:text-before-edge;text-decoration:none solid rgb(0, 0, 0);">p&#x27;=?</text></g></g></g><g><g><g><text x="312" y="160" style="white-space:pre;stroke:none;fill:rgb(0,0,0);fill-opacity:1;font-size:15px;font-family:Arial, Helvetica, sans-serif;font-weight:400;font-style:normal;dominant-baseline:text-before-edge;text-decoration:none solid rgb(0, 0, 0);">p</text></g></g></g><g><g><g><text x="314" y="213" style="white-space:pre;stroke:none;fill:rgb(0,0,0);fill-opacity:1;font-size:15px;font-family:Arial, Helvetica, sans-serif;font-weight:400;font-style:normal;dominant-baseline:text-before-edge;text-decoration:none solid rgb(0, 0, 0);">p&#x27;= q-1p</text></g></g></g></svg>
</svg>
