<svg xmlns="http://www.w3.org/2000/svg" xmlns:xlink="http://www.w3.org/1999/xlink" x="0" y="0" width="662" height="302" style="
        width:662px;
        height:302px;
        background: transparent;
        fill: none;
">
        
        <g transform="matrix(1,0,0,1,19.2,6.33334)"> <svg class="main-svg" xmlns="http://www.w3.org/2000/svg" xmlns:xlink="http://www.w3.org/1999/xlink" width="101" height="124" style="" viewBox="0 0 101 124"><rect x="0" y="0" width="101" height="124" style="fill: rgb(255, 255, 255); fill-opacity: 1;"/><defs id="defs-3ca6f7"><g class="clips"><clipPath id="clip3ca6f7xyplot" class="plotclip"><rect width="101" height="124"/></clipPath><clipPath class="axesclip" id="clip3ca6f7x"><rect x="0" y="0" width="101" height="124"/></clipPath><clipPath class="axesclip" id="clip3ca6f7y"><rect x="0" y="0" width="101" height="124"/></clipPath><clipPath class="axesclip" id="clip3ca6f7xy"><rect x="0" y="0" width="101" height="124"/></clipPath></g><g class="gradients"/></defs><g class="bglayer"/><g class="layer-below"><g class="imagelayer"/><g class="shapelayer"/></g><g class="cartesianlayer"><g class="subplot xy"><g class="layer-subplot"><g class="shapelayer"/><g class="imagelayer"/></g><g class="gridlayer"><g class="x"/><g class="y"/></g><g class="zerolinelayer"/><path class="xlines-below"/><path class="ylines-below"/><g class="overlines-below"/><g class="xaxislayer-below"/><g class="yaxislayer-below"/><g class="overaxes-below"/><g class="plot" transform="translate(0, 0)" clip-path="url('#clip3ca6f7xyplot')"><g class="scatterlayer mlayer"><g class="trace scatter trace5ca574" style="stroke-miterlimit: 2; opacity: 1;"><g class="fills"/><g class="errorbars"/><g class="lines"><path class="js-line" d="M68.45,19.42L68.23,18.78L66.95,18.96L65.61,19.23L65.86,18.2L64.57,17.62L62.66,18.53L62.12,18.19L59.15,20.33L62.47,16L59.51,18.25L54.92,20.12L55.65,18.22L53.99,19.52L55.28,16.66L53.21,17.57L50.74,20.52L51.21,18.65L48.06,23.23L49.92,18.63L48.98,19.26L49.33,17.21L46.88,21.29L47.21,19.19L46.18,20.31L46.17,18.83L43.66,23.12L44.67,17.97L42.01,24.16L41.94,22.42L41.15,21.46L40.39,23.36L40.06,22.39L39.42,24.21L39.22,21.04L38.61,23.27L38.19,22.31L37.72,22.79L37.31,24.86L36.94,25.55L36.52,25.24L36.6,30.38L35.75,25.53L35.79,28.55L34.79,24.49L34.95,29.26L34.21,27.46L33.92,30.91L31.95,26.24L33.51,31.32L32.9,31.2L31.26,28.3L31.62,29.78L33.47,33.99L30.04,29.99L31.02,32.01L32.31,34.33L30.27,31.81L30.13,32.05L32.84,36.17L32.16,35.85L30.92,34.72L33.14,37.35L30.25,34.58L29.02,33.64L31.98,36.75L30.47,36.01L27.93,34.14L33.93,39.28L29.94,36.63L28.72,35.98L34.11,39.78L31.76,38.87L30.12,38.1L34.21,40.37L29.24,38.11L30.83,39L28.7,38.18L33.42,40.5L31.4,40.11L30.39,39.89L33.51,40.94L28.88,39.68L31.68,41.08L29.14,40.73L31.1,41.15L28.86,40.92L29.83,41.27L26.57,41.03L33.03,41.89L31.82,41.89L28.65,41.84L34.03,42.29L28.4,42.56L28.21,42.81L33.61,42.73L29.33,43.4L29.01,43.69L31.77,43.29L31.06,43.61L27.41,44.53L27.64,44.62L29.35,44.33L33.11,43.44L29.42,44.94L29.06,45.19L34.59,43.65L31.23,45.32L31.18,45.47L28.29,47.09L32.95,44.86L32.26,45.59L30.1,47.11L33.61,45.04L33.58,45.6L32.42,46.71L31.48,47.91L33.93,45.79L35.15,44.72L30.33,49.73L33.88,46.93L31.94,49.61L32.22,49.54L33.82,47.63L35.07,46.22L33.59,48.76L34.52,47.52L32.55,51.23L32.79,51.25L34.55,48.31L33.33,51.13L36,45.9L34.55,49.88L35.13,48.88L34.54,51.65L35.85,48.19L35.6,49.59L34.8,53.32L34.7,54.88L35.98,50.33L35.87,51.93L36.37,51.72L36.75,50.38L36.81,51.86L33.83,97.26L35.28,94.01L36.44,96.47L37.72,98.5L38.95,94.43L40.27,96.3L41.24,92L42.14,89.02L43.26,89.16L46.14,81.6L46.94,80.96L47.66,80.12L46.75,73.68L48.85,77.93L48.68,74.79L49.12,73.73L49.97,73.87L50.64,70.01L71.61,111.22L73.69,111.66L74.22,109.17L78.56,113.51L77.95,109.17L80.57,110.31L81.6,108.88L83.36,108.59L86.35,109.99L89.1,110.91L90.79,110.33L90.62,107.45L92.02,106.61L94.61,107.13L92.02,101.87L91.24,98.85L92.41,97.99L87.17,89.11L90,90.05L89.58,88.01L86.33,83.64L88.69,84.15L86.4,80.89L91.52,83.49" style="vector-effect: non-scaling-stroke; fill: none; stroke: rgb(208, 2, 27); stroke-opacity: 1; stroke-width: 2px; opacity: 1;"/></g><g class="points"/><g class="text"/></g><g class="trace scatter trace8933aa" style="stroke-miterlimit: 2; opacity: 1;"><g class="fills"/><g class="errorbars"/><g class="lines"><path class="js-line" d="M73.92,15.36L71.76,14.17L71.45,13.43L68.04,8.87L67.37,8.35L65.76,6.2L63.62,7.56L59.63,10.32L58.88,10.03L51.73,8.24L50.9,8.13L43.39,7.98L42.56,8.06L35.41,9.53L34.66,9.77L28.52,12.65L27.91,13.04L23.26,16.94L22.84,17.42L19.93,21.89L19.7,22.39L18.51,26.93L18.46,27.41L18.9,32.42L19.01,32.84L21.1,37.47L21.29,37.76L25.06,42.03L25.26,42.19L30.49,45.67L30.63,45.74L30.34,46.47L30.09,46.77L3.08,80.26L0,85.25L15.37,108.62L16.7,109.68L19.44,111.91L20.4,115L21.56,117.8L23.41,117.67L25.24,117.54L27.49,114.3L33.43,102.93L35.04,99.1L37.72,92.98L38.9,92.46L45.67,90.21L46.77,89.92L48.92,89.27L49.71,87.92L51.14,72.8L51.1,71.01L50.89,59.81L81.34,98.19L101,90.77" style="vector-effect: non-scaling-stroke; fill: none; stroke: rgb(155, 155, 155); stroke-opacity: 1; stroke-width: 2px; opacity: 1;"/></g><g class="points"/><g class="text"/></g></g></g><g class="overplot"/><path class="xlines-above crisp" d="M0,0" style="fill: none;"/><path class="ylines-above crisp" d="M0,0" style="fill: none;"/><g class="overlines-above"/><g class="xaxislayer-above"/><g class="yaxislayer-above"/><g class="overaxes-above"/></g></g><g class="polarlayer"/><g class="ternarylayer"/><g class="geolayer"/><g class="funnelarealayer"/><g class="pielayer"/><g class="treemaplayer"/><g class="sunburstlayer"/><g class="glimages"/><defs id="topdefs-3ca6f7"><g class="clips"/></defs><g class="layer-above"><g class="imagelayer"/><g class="shapelayer"/></g><g class="infolayer"><g class="g-gtitle"/><g class="g-xtitle" transform="translate(0,-38)"><text class="xtitle" x="50.5" y="162" text-anchor="middle" style="font-family: 'Open Sans', verdana, arial, sans-serif; font-size: 14px; fill: rgb(68, 68, 68); opacity: 1; font-weight: normal; white-space: pre;"><tspan class="line" dy="0em" x="50.5" y="162"></tspan><tspan class="line" dy="1.3em" x="50.5" y="162"></tspan></text></g><g class="g-ytitle"><text class="ytitle" transform="rotate(-90,-31,62)" x="-31" y="62" text-anchor="middle" style="font-family: 'Open Sans', verdana, arial, sans-serif; font-size: 14px; fill: rgb(68, 68, 68); opacity: 1; font-weight: normal; white-space: pre;"><tspan class="line" dy="0em" x="-31" y="62"></tspan><tspan class="line" dy="1.3em" x="-31" y="62"></tspan></text></g></g></svg></g>
<g transform="matrix(1,0,0,1,192.2,14.3333)"> <svg class="main-svg" xmlns="http://www.w3.org/2000/svg" xmlns:xlink="http://www.w3.org/1999/xlink" width="80" height="111" style="" viewBox="0 0 80 111"><rect x="0" y="0" width="80" height="111" style="fill: rgb(255, 255, 255); fill-opacity: 1;"/><defs id="defs-3c4c03"><g class="clips"><clipPath id="clip3c4c03xyplot" class="plotclip"><rect width="80" height="111"/></clipPath><clipPath class="axesclip" id="clip3c4c03x"><rect x="0" y="0" width="80" height="111"/></clipPath><clipPath class="axesclip" id="clip3c4c03y"><rect x="0" y="0" width="80" height="111"/></clipPath><clipPath class="axesclip" id="clip3c4c03xy"><rect x="0" y="0" width="80" height="111"/></clipPath></g><g class="gradients"/></defs><g class="bglayer"/><g class="layer-below"><g class="imagelayer"/><g class="shapelayer"/></g><g class="cartesianlayer"><g class="subplot xy"><g class="layer-subplot"><g class="shapelayer"/><g class="imagelayer"/></g><g class="gridlayer"><g class="x"/><g class="y"/></g><g class="zerolinelayer"/><path class="xlines-below"/><path class="ylines-below"/><g class="overlines-below"/><g class="xaxislayer-below"/><g class="yaxislayer-below"/><g class="overaxes-below"/><g class="plot" transform="translate(0, 0)" clip-path="url('#clip3c4c03xyplot')"><g class="scatterlayer mlayer"><g class="trace scatter trace020fdb" style="stroke-miterlimit: 2; opacity: 1;"><g class="fills"/><g class="errorbars"/><g class="lines"><path class="js-line" d="M49.24,9.05L48.98,8.4L47.48,8.59L45.91,8.86L46.2,7.8L44.68,7.21L42.44,8.15L41.81,7.8L38.31,9.99L42.21,5.55L38.73,7.86L35.58,9.17L34.09,9.84L33.33,9.77L34.19,7.82L32.24,9.16L33.75,6.22L31.33,7.16L28.42,10.18L28.97,8.26L25.27,12.96L27.46,8.24L26.35,8.9L26.76,6.79L23.89,10.97L24.27,8.82L23.07,9.97L23.04,8.45L20.1,12.85L21.28,7.57L18.16,13.91L18.08,12.13L17.15,11.15L16.25,13.1L15.86,12.1L15.11,13.96L14.87,10.71L14.16,13L13.66,12.01L13.11,12.51L12.63,14.63L12.19,15.34L11.7,15.02L11.8,20.29L10.8,15.32L10.84,18.41L9.66,14.25L9.86,19.13L8.99,17.29L8.65,20.83L6.33,16.05L8.17,21.25L7.44,21.12L5.52,18.15L5.94,19.67L8.12,23.98L5.61,20.97L5.64,21.55L4.08,19.88L6.75,24.33L4.36,21.75L4.19,21.99L6.57,25.07L7.37,26.22L3.48,22.43L7.73,27.42L4.33,24.58L2.88,23.62L6.36,26.81L4.32,25.37L4.95,26.11L4.59,26.05L1.6,24.13L8.65,29.41L3.96,26.68L2.53,26.02L8.86,29.92L6.11,28.98L4.18,28.2L8.99,30.52L3.14,28.2L5.01,29.12L2.51,28.27L8.06,30.65L5.68,30.25L4.49,30.03L8.17,31.1L2.72,29.81L6.01,31.25L3.03,30.88L5.33,31.32L2.69,31.08L3.84,31.44L0,31.2L7.6,32.08L6.18,32.08L2.45,32.03L8.77,32.49L2.15,32.76L1.94,33.02L8.28,32.94L3.25,33.63L2.87,33.92L6.12,33.51L5.28,33.84L0.99,34.78L1.26,34.88L3.27,34.58L7.69,33.66L3.35,35.2L2.93,35.46L9.43,33.87L5.48,35.59L5.42,35.74L2.02,37.4L7.51,35.12L6.7,35.86L4.15,37.42L8.28,35.3L8.24,35.88L6.89,37.01L5.78,38.24L8.66,36.07L10.1,34.97L4.42,40.11L8.6,37.24L6.32,39.98L6.65,39.92L8.53,37.95L10,36.51L8.26,39.11L9.35,37.85L7.03,41.64L7.31,41.66L9.39,38.65L7.95,41.54L11.09,36.19L9.38,40.26L10.07,39.24L9.37,42.07L10.92,38.53L10.62,39.96L9.68,43.78L9.56,45.38L11.07,40.72L10.94,42.37L11.52,42.14L11.98,40.77L12.04,42.29L8.53,88.8L10.24,85.47L11.61,87.99L13.11,90.07L14.56,85.9L16.11,87.82L17.25,83.41L18.31,80.36L19.63,80.5L21.28,75.36L22.33,74.74L23.95,72.1L24.8,71.24L23.73,64.64L26.2,69L26.51,64.69L27.52,64.84L27.53,62.85L28.36,62.69L28.3,60.88L52.96,103.1L55.41,103.55L56.03,101L61.13,105.45L60.41,101L63.5,102.17L64.71,100.71L66.77,100.41L70.29,101.84L73.53,102.78L75.51,102.19L75.31,99.24L76.95,98.37L80,98.91L76.96,93.52L76.04,90.43L77.42,89.55L71.25,80.45L74.58,81.41L74.09,79.32L70.26,74.85L73.04,75.37L70.35,72.03L76.37,74.69L77.84,74.19" style="vector-effect: non-scaling-stroke; fill: none; stroke: rgb(208, 2, 27); stroke-opacity: 1; stroke-width: 2px; opacity: 1;"/></g><g class="points"/><g class="text"/></g><g class="trace scatter traceaef8e3" style="stroke-miterlimit: 2; opacity: 1;"><g class="fills"/><g class="errorbars"/><g class="lines"><path class="js-line" d="M49.2,9.08L40.79,7.78L39.85,7.72L30.64,8.12L29.76,8.24L20.93,10.51L20.22,10.78L13.6,14.23L13.11,14.56L8.31,18.96L8.05,19.28L5.35,24.05L5.26,24.28L4.48,29.3L4.48,29.42L5.39,33.91L5.43,34L7.94,38.41L8.04,38.55L11.77,42.27L6.96,89.24L13.11,88.94L14.58,86.89L22.17,74.04L22.92,72.36L28.14,60.57L53.28,103.67L76.87,100.91L77.6,99.04L78.31,97.22L78.04,94.55L73.73,75.86L73.81,74.42L77.51,73.98" style="vector-effect: non-scaling-stroke; fill: none; stroke: rgb(155, 155, 155); stroke-opacity: 1; stroke-width: 2px; opacity: 1;"/></g><g class="points"/><g class="text"/></g></g></g><g class="overplot"/><path class="xlines-above crisp" d="M0,0" style="fill: none;"/><path class="ylines-above crisp" d="M0,0" style="fill: none;"/><g class="overlines-above"/><g class="xaxislayer-above"/><g class="yaxislayer-above"/><g class="overaxes-above"/></g></g><g class="polarlayer"/><g class="ternarylayer"/><g class="geolayer"/><g class="funnelarealayer"/><g class="pielayer"/><g class="treemaplayer"/><g class="sunburstlayer"/><g class="glimages"/><defs id="topdefs-3c4c03"><g class="clips"/></defs><g class="layer-above"><g class="imagelayer"/><g class="shapelayer"/></g><g class="infolayer"><g class="g-gtitle"/><g class="g-xtitle" transform="translate(0,-38)"><text class="xtitle" x="40" y="149" text-anchor="middle" style="font-family: 'Open Sans', verdana, arial, sans-serif; font-size: 14px; fill: rgb(68, 68, 68); opacity: 1; font-weight: normal; white-space: pre;"><tspan class="line" dy="0em" x="40" y="149"></tspan><tspan class="line" dy="1.3em" x="40" y="149"></tspan></text></g><g class="g-ytitle"><text class="ytitle" transform="rotate(-90,-31,55.5)" x="-31" y="55.5" text-anchor="middle" style="font-family: 'Open Sans', verdana, arial, sans-serif; font-size: 14px; fill: rgb(68, 68, 68); opacity: 1; font-weight: normal; white-space: pre;"><tspan class="line" dy="0em" x="-31" y="55.5"></tspan><tspan class="line" dy="1.3em" x="-31" y="55.5"></tspan></text></g></g></svg></g>
        <svg xmlns="http://www.w3.org/2000/svg" class="role-diagram-draw-area"><g class="shapes-region" style="stroke: black; fill: none;"><g class="composite-shape"><rect class="real" rx="0" ry="0" x="19.20001220703125" y="6.333335876464844" width="100.79998779296875" height="123.66666412353516" style="stroke: none;"/></g><g class="composite-shape"><rect class="real" rx="0" ry="0" x="192.20001220703125" y="14.333335876464844" width="79.79998779296875" height="110.66666412353516" style="stroke: none;"/></g><g class="arrow-line"><path class="connection real" stroke-dasharray="" d="  M91.2,50.05 L68.44,44.88" style="stroke: rgb(208, 2, 27); stroke-opacity: 1; stroke-width: 1; fill: none; fill-opacity: 1;"/><g stroke="rgb(208,2,27)" stroke-opacity="1" transform="matrix(0.9752266299092236,0.22120809279024634,-0.22120809279024634,0.9752266299092236,66.48980712890625,44.44129180908203)" style="stroke: rgb(208, 2, 27); stroke-width: 1;"><path d=" M10.93,-3.29 Q4.96,-0.45 0,0 Q4.96,0.45 10.93,3.29"/></g><g stroke="rgb(208,2,27)" stroke-opacity="1" fill="rgb(208,2,27)" fill-opacity="1" transform="matrix(-0.9752266299092234,-0.22120809279024733,0.22120809279024733,-0.9752266299092234,91.19998168945312,50.04762268066406)" style="stroke: rgb(208, 2, 27); fill: rgb(208, 2, 27); stroke-width: 1;"><circle cx="0" cy="0" r="3.35"/></g></g><g class="arrow-line"><path class="connection real" stroke-dasharray="" d="  M105.2,62.33 L91.62,75.78" style="stroke: rgb(155, 155, 155); stroke-opacity: 1; stroke-width: 1; fill: none; fill-opacity: 1;"/><g stroke="rgb(155,155,155)" stroke-opacity="1" transform="matrix(0.7104310798498131,-0.703766780107891,0.703766780107891,0.7104310798498131,90.19998168945312,77.19047737121582)" style="stroke: rgb(155, 155, 155); stroke-width: 1;"><path d=" M10.93,-3.29 Q4.96,-0.45 0,0 Q4.96,0.45 10.93,3.29"/></g><g stroke="rgb(155,155,155)" stroke-opacity="1" fill="rgb(155,155,155)" fill-opacity="1" transform="matrix(-0.7104310798498135,0.7037667801078905,-0.7037667801078905,-0.7104310798498135,105.20001220703125,62.333335876464844)" style="stroke: rgb(155, 155, 155); fill: rgb(155, 155, 155); stroke-width: 1;"><circle cx="0" cy="0" r="3.35"/></g></g><g class="arrow-line"><path class="connection real" stroke-dasharray="" d="  M237.2,50.05 L214.44,44.88" style="stroke: rgb(208, 2, 27); stroke-opacity: 1; stroke-width: 1; fill: none; fill-opacity: 1;"/><g stroke="rgb(208,2,27)" stroke-opacity="1" transform="matrix(0.9752266299092236,0.22120809279024634,-0.22120809279024634,0.9752266299092236,212.48980712890625,44.44129180908203)" style="stroke: rgb(208, 2, 27); stroke-width: 1;"><path d=" M10.93,-3.29 Q4.96,-0.45 0,0 Q4.96,0.45 10.93,3.29"/></g><g stroke="rgb(208,2,27)" stroke-opacity="1" fill="rgb(208,2,27)" fill-opacity="1" transform="matrix(-0.9752266299092234,-0.22120809279024733,0.22120809279024733,-0.9752266299092234,237.1999816894531,50.04762268066406)" style="stroke: rgb(208, 2, 27); fill: rgb(208, 2, 27); stroke-width: 1;"><circle cx="0" cy="0" r="3.35"/></g></g><g class="arrow-line"><path class="connection real" stroke-dasharray="" d="  M237.2,51.05 L214.44,45.88" style="stroke: rgb(155, 155, 155); stroke-opacity: 1; stroke-width: 1; fill: none; fill-opacity: 1;"/><g stroke="rgb(155,155,155)" stroke-opacity="1" transform="matrix(0.9752266299092236,0.22120809279024634,-0.22120809279024634,0.9752266299092236,212.48980712890625,45.44129180908203)" style="stroke: rgb(155, 155, 155); stroke-width: 1;"><path d=" M10.93,-3.29 Q4.96,-0.45 0,0 Q4.96,0.45 10.93,3.29"/></g><g stroke="rgb(155,155,155)" stroke-opacity="1" fill="rgb(155,155,155)" fill-opacity="1" transform="matrix(-0.9752266299092234,-0.22120809279024733,0.22120809279024733,-0.9752266299092234,237.19998168945312,51.04762268066406)" style="stroke: rgb(155, 155, 155); fill: rgb(155, 155, 155); stroke-width: 1;"><circle cx="0" cy="0" r="3.35"/></g></g><g class="composite-shape"><path class="real" d=" M146,72.75 L160.4,72.75 L160.4,70.33 L170,75.17 L160.4,80 L160.4,77.58 L146,77.58 Z" style="stroke-width: 1; stroke: rgb(0, 0, 0); fill: none; fill-opacity: 1;"/></g><g/></g><g/><g/><g/></svg>
        <svg xmlns="http://www.w3.org/2000/svg" xmlns:xlink="http://www.w3.org/1999/xlink" width="660" height="300" style="width:660px;height:300px;font-family:Asana-Math, Asana;background:transparent;"><g><g><g><text x="143" y="46" style="white-space:pre;stroke:none;fill:rgb(0,0,0);fill-opacity:1;font-size:15px;font-family:Arial, Helvetica, sans-serif;font-weight:400;font-style:normal;dominant-baseline:text-before-edge;text-decoration:none solid rgb(0, 0, 0);">smsm</text></g></g></g><g><g><g><text x="104" y="30" style="white-space:pre;stroke:none;fill:rgb(0,0,0);fill-opacity:1;font-size:15px;font-family:Arial, Helvetica, sans-serif;font-weight:400;font-style:normal;dominant-baseline:text-before-edge;text-decoration:none solid rgb(0, 0, 0);">p</text></g></g></g><g><g><g><text x="115" y="53" style="white-space:pre;stroke:none;fill:rgb(0,0,0);fill-opacity:1;font-size:15px;font-family:Arial, Helvetica, sans-serif;font-weight:400;font-style:normal;dominant-baseline:text-before-edge;text-decoration:none solid rgb(0, 0, 0);">ph</text></g></g></g><g><g><g><text x="250" y="29" style="white-space:pre;stroke:none;fill:rgb(0,0,0);fill-opacity:1;font-size:15px;font-family:Arial, Helvetica, sans-serif;font-weight:400;font-style:normal;dominant-baseline:text-before-edge;text-decoration:none solid rgb(0, 0, 0);">p</text></g></g></g><g><g><g><text x="251" y="53" style="white-space:pre;stroke:none;fill:rgb(0,0,0);fill-opacity:1;font-size:15px;font-family:Arial, Helvetica, sans-serif;font-weight:400;font-style:normal;dominant-baseline:text-before-edge;text-decoration:none solid rgb(0, 0, 0);">ph&#x27;</text></g></g></g><g><g><g><text x="29" y="129.00001525878906" style="white-space:pre;stroke:none;fill:rgb(0,0,0);fill-opacity:1;font-size:15px;font-family:Arial, Helvetica, sans-serif;font-weight:400;font-style:normal;dominant-baseline:text-before-edge;text-decoration:none solid rgb(0, 0, 0);">Sv</text></g></g></g><g><g><g><text x="91" y="128.00001525878906" style="white-space:pre;stroke:none;fill:rgb(0,0,0);fill-opacity:1;font-size:15px;font-family:Arial, Helvetica, sans-serif;font-weight:400;font-style:normal;dominant-baseline:text-before-edge;text-decoration:none solid rgb(0, 0, 0);">Sr</text></g></g></g><g><g><g><text x="195" y="113.00001525878906" style="white-space:pre;stroke:none;fill:rgb(0,0,0);fill-opacity:1;font-size:15px;font-family:Arial, Helvetica, sans-serif;font-weight:400;font-style:normal;dominant-baseline:text-before-edge;text-decoration:none solid rgb(0, 0, 0);">Sv</text></g></g></g><g><g><g><text x="249" y="126.00001525878906" style="white-space:pre;stroke:none;fill:rgb(0,0,0);fill-opacity:1;font-size:15px;font-family:Arial, Helvetica, sans-serif;font-weight:400;font-style:normal;dominant-baseline:text-before-edge;text-decoration:none solid rgb(0, 0, 0);">Sr</text></g></g></g></svg>
</svg>
