<svg xmlns="http://www.w3.org/2000/svg" xmlns:xlink="http://www.w3.org/1999/xlink" x="0" y="0" width="1129" height="693.15625" style="
        width:1129px;
        height:693.15625px;
        background: #FFF;
        fill: none;
">
        <svg xmlns="http://www.w3.org/2000/svg"/>
        <g transform="matrix(1,0,0,1,70.1886,36)"> <svg class="main-svg" xmlns="http://www.w3.org/2000/svg" xmlns:xlink="http://www.w3.org/1999/xlink" width="101" height="124" style="" viewBox="0 0 101 124"><rect x="0" y="0" width="101" height="124" style="fill: rgb(255, 255, 255); fill-opacity: 1;"/><defs id="defs-a53de0"><g class="clips"><clipPath id="clipa53de0xyplot" class="plotclip"><rect width="101" height="124"/></clipPath><clipPath class="axesclip" id="clipa53de0x"><rect x="0" y="0" width="101" height="124"/></clipPath><clipPath class="axesclip" id="clipa53de0y"><rect x="0" y="0" width="101" height="124"/></clipPath><clipPath class="axesclip" id="clipa53de0xy"><rect x="0" y="0" width="101" height="124"/></clipPath></g><g class="gradients"/></defs><g class="bglayer"/><g class="layer-below"><g class="imagelayer"/><g class="shapelayer"/></g><g class="cartesianlayer"><g class="subplot xy"><g class="layer-subplot"><g class="shapelayer"/><g class="imagelayer"/></g><g class="gridlayer"><g class="x"/><g class="y"/></g><g class="zerolinelayer"/><path class="xlines-below"/><path class="ylines-below"/><g class="overlines-below"/><g class="xaxislayer-below"/><g class="yaxislayer-below"/><g class="overaxes-below"/><g class="plot" transform="translate(0, 0)" clip-path="url('#clipa53de0xyplot')"><g class="scatterlayer mlayer"><g class="trace scatter trace93cc12" style="stroke-miterlimit: 2; opacity: 1;"><g class="fills"/><g class="errorbars"/><g class="lines"><path class="js-line" d="M77.33,42.19L81.17,41.52L79.86,40.88L77.8,40.3L80.09,39.54L76.85,38.49L79.59,37.59L81.52,36.7L79.21,36.3L78.49,35.74L81.19,34.64L78.42,34.42L83.14,32.85L83.35,32.06L82.25,31.55L82.63,30.71L80.56,30.47L76.64,30.79L81.14,28.83L78.55,28.11L81.15,26.51L79.48,26.3L80.53,25.14L75.18,26.38L79.83,23.79L79.33,23.18L76.6,23.54L76.36,22.86L69.72,25.21L75.25,21.79L72.48,22.39L69.2,23.37L70.12,22.13L65.98,23.75L68,21.85L66.92,21.77L66.96,20.98L64.57,21.81L64.51,21.11L64.98,20.02L61.53,21.78L62.27,20.48L60.06,21.47L61.65,19.42L61.45,18.78L60.3,18.96L59.1,19.23L59.32,18.2L58.16,17.62L56.44,18.53L55.96,18.19L53.28,20.33L56.26,16L53.6,18.25L49.46,20.12L50.12,18.22L48.63,19.52L49.79,16.66L47.93,17.57L45.7,20.52L46.12,18.65L43.29,23.23L44.97,18.63L44.12,19.26L44.43,17.21L42.23,21.29L42.52,19.19L41.6,20.31L41.58,18.83L40.4,20.98L39.32,23.12L40.23,17.97L37.84,24.16L37.78,22.42L37.07,21.46L36.38,23.36L36.08,22.39L35.5,24.21L35.32,21.04L34.78,23.27L34.4,22.31L33.97,22.79L33.61,24.86L33.27,25.55L32.89,25.24L32.97,30.38L31.33,24.49L31.62,28.41L31.48,29.26L30.82,27.46L30.56,30.91L28.78,26.24L29.96,31.39L29.63,31.2L28.16,28.3L30.15,33.99L28.91,31.89L27.06,29.99L27.94,32.01L27.27,31.81L29.58,36.17L26.59,32.47L29.85,37.35L27.25,34.58L26.14,33.64L28.8,36.75L27.44,36.01L25.16,34.14L30.56,39.28L26.97,36.63L25.87,35.98L30.72,39.78L28.61,38.87L27.13,38.1L30.81,40.37L25.85,38.18L29.33,40.25L28.72,40.09L27.37,39.89L30.18,40.94L26.01,39.68L29.29,41.16L28.54,41.08L26.25,40.73L28.01,41.15L25.99,40.92L26.87,41.27L23.93,41.03L29.75,41.89L28.66,41.89L25.81,41.84L30.65,42.29L25.58,42.56L25.41,42.81L30.28,42.73L26.42,43.4L26.13,43.69L28.62,43.29L27.97,43.61L24.69,44.53L24.89,44.62L26.44,44.33L29.82,43.44L26.5,44.94L26.17,45.19L31.15,43.65L28.13,45.32L28.08,45.47L25.48,47.09L29.68,44.86L29.06,45.59L27.11,47.11L30.27,45.04L30.25,45.6L29.2,46.71L28.35,47.91L30.56,45.79L31.66,44.72L27.32,49.73L30.52,46.93L28.77,49.61L29.02,49.54L30.46,47.63L31.59,46.22L30.25,48.76L31.09,47.52L29.31,51.23L29.53,51.25L31.12,48.31L30.02,51.13L32.42,45.9L31.64,48.88L31.17,50.82L31.11,51.65L32.29,48.19L31.26,54.88L32.31,51.93L32.72,50.57L33.1,50.38L33.15,51.86L30.47,97.26L31.77,94.01L32.82,96.47L33.97,98.5L35.08,94.43L36.27,96.3L37.15,92L37.95,89.02L38.97,89.16L41.56,81.6L42.28,80.96L42.93,80.12L42.11,73.68L44,77.93L43.85,74.79L44.24,73.73L45.01,73.87L45.61,70.01L64.5,111.22L66.37,111.66L66.85,109.17L70.76,113.51L70.21,109.17L72.57,110.31L73.5,108.88L75.08,108.59L77.77,109.99L80.26,110.91L81.77,110.33L81.62,107.45L82.88,106.61L85.21,107.13L82.88,101.87L82.18,98.85L83.23,97.99L78.51,89.11L81.06,90.05L80.69,88.01L77.75,83.64L79.88,84.15L77.82,80.89L82.43,83.49L83.56,83L83.79,81.78L85.41,81.67L87.83,82.11L88.34,81.09L92.07,80.91L96.63,82.48L97,81.28L98.99,81.07L98.36,79.29L99.14,78.37L95.46,75.06L98.24,75.24L98.66,72.93L97.64,71.24L96.33,69.48L98.96,69.44L98.37,66.91L98.53,65.85L93.5,61.99L94.52,61.32L92.48,59.72L97.1,60.08L91.47,56.66L94.61,56.51L95.65,55.8L92.22,54.15L95.48,53.88L94.51,52.78L93.63,51.74L94.57,50.99L95.84,50.26L90.53,48.74L95.37,48.4L92.36,47.24L83.47,45.04L82.95,44.31L77.7,42.82" style="vector-effect: non-scaling-stroke; fill: none; stroke: rgb(208, 2, 27); stroke-opacity: 1; stroke-width: 2px; opacity: 1;"/></g><g class="points"/><g class="text"/></g><g class="trace scatter trace308662" style="stroke-miterlimit: 2; opacity: 1;"><g class="fills"/><g class="errorbars"/><g class="lines"><path class="js-line" d="M92.78,42.19L89.5,36.58L89.04,35.83L83.59,27.33L81.59,27.15L69.91,25.8L69.11,25.5L66.14,22.25L66.44,21.32L66.21,19.93L65.84,19.4L65.4,18.08L66.96,15.98L65.71,15.15L65.1,14.72L62.18,10.24L61.83,9.46L59.23,6.2L57.3,7.56L53.71,10.32L53.03,10.03L46.59,8.24L45.84,8.13L39.08,7.98L38.33,8.06L31.89,9.53L31.22,9.77L25.69,12.65L25.14,13.04L20.95,16.94L20.57,17.42L17.74,22.39L17.56,22.9L16.6,27.9L16.59,28.38L17.34,33.64L17.47,34.03L19.53,38.33L19.71,38.61L23.58,42.94L23.73,43.08L27.53,46.19L27.32,46.47L2.78,80.26L0,85.25L15.04,109.68L16.35,110.43L17.51,111.91L18.37,115L19.42,117.8L21.08,117.67L22.73,117.54L24.76,114.3L30.11,102.93L31.56,99.1L33.97,92.98L35.04,92.46L41.14,90.21L42.12,89.92L44.06,89.27L44.77,87.92L46.06,72.8L46.03,71.01L45.84,59.81L73.26,98.19L94.99,89.02L95.32,87.65L95.14,84.43L93.74,82.03L84.27,65.14L84.3,64.22L95.78,59.71L96.93,59.03L100.35,57.86L101,56.97L100.34,54.8L99.78,53.71L93.2,43.05" style="vector-effect: non-scaling-stroke; fill: none; stroke: rgb(51, 101, 152); stroke-opacity: 1; stroke-width: 2px; opacity: 1;"/></g><g class="points"/><g class="text"/></g></g></g><g class="overplot"/><path class="xlines-above crisp" d="M0,0" style="fill: none;"/><path class="ylines-above crisp" d="M0,0" style="fill: none;"/><g class="overlines-above"/><g class="xaxislayer-above"/><g class="yaxislayer-above"/><g class="overaxes-above"/></g></g><g class="polarlayer"/><g class="ternarylayer"/><g class="geolayer"/><g class="funnelarealayer"/><g class="pielayer"/><g class="treemaplayer"/><g class="sunburstlayer"/><g class="glimages"/><defs id="topdefs-a53de0"><g class="clips"/></defs><g class="layer-above"><g class="imagelayer"/><g class="shapelayer"/></g><g class="infolayer"><g class="g-gtitle"/><g class="g-xtitle" transform="translate(0,-38)"><text class="xtitle" x="50.5" y="162" text-anchor="middle" style="font-family: 'Open Sans', verdana, arial, sans-serif; font-size: 14px; fill: rgb(68, 68, 68); opacity: 1; font-weight: normal; white-space: pre;"><tspan class="line" dy="0em" x="50.5" y="162"></tspan><tspan class="line" dy="1.3em" x="50.5" y="162"></tspan></text></g><g class="g-ytitle" transform="translate(93,0)"><text class="ytitle" transform="rotate(-90,-31,62)" x="-31" y="62" text-anchor="middle" style="font-family: 'Open Sans', verdana, arial, sans-serif; font-size: 14px; fill: rgb(68, 68, 68); opacity: 1; font-weight: normal; white-space: pre;"><tspan class="line" dy="0em" x="-31" y="62"></tspan><tspan class="line" dy="1.3em" x="-31" y="62"></tspan></text></g></g></svg></g>
<g transform="matrix(1,0,0,1,210.189,46)"> <svg class="main-svg" xmlns="http://www.w3.org/2000/svg" xmlns:xlink="http://www.w3.org/1999/xlink" width="80" height="111" style="" viewBox="0 0 80 111"><rect x="0" y="0" width="80" height="111" style="fill: rgb(255, 255, 255); fill-opacity: 1;"/><defs id="defs-e0ade6"><g class="clips"><clipPath id="clipe0ade6xyplot" class="plotclip"><rect width="80" height="111"/></clipPath><clipPath class="axesclip" id="clipe0ade6x"><rect x="0" y="0" width="80" height="111"/></clipPath><clipPath class="axesclip" id="clipe0ade6y"><rect x="0" y="0" width="80" height="111"/></clipPath><clipPath class="axesclip" id="clipe0ade6xy"><rect x="0" y="0" width="80" height="111"/></clipPath></g><g class="gradients"/></defs><g class="bglayer"/><g class="layer-below"><g class="imagelayer"/><g class="shapelayer"/></g><g class="cartesianlayer"><g class="subplot xy"><g class="layer-subplot"><g class="shapelayer"/><g class="imagelayer"/></g><g class="gridlayer"><g class="x"/><g class="y"/></g><g class="zerolinelayer"/><path class="xlines-below"/><path class="ylines-below"/><g class="overlines-below"/><g class="xaxislayer-below"/><g class="yaxislayer-below"/><g class="overaxes-below"/><g class="plot" transform="translate(0, 0)" clip-path="url('#clipe0ade6xyplot')"><g class="scatterlayer mlayer"><g class="trace scatter trace754c66" style="stroke-miterlimit: 2; opacity: 1;"><g class="fills"/><g class="errorbars"/><g class="lines"><path class="js-line" d="M56.5,32.39L60.56,31.69L59.17,31.04L56.99,30.45L59.42,29.67L55.98,28.59L58.89,27.67L60.93,26.75L58.48,26.35L57.72,25.77L60.58,24.65L57.65,24.42L62.65,22.82L62.86,22.01L61.71,21.48L62.1,20.63L59.91,20.38L55.76,20.7L60.53,18.7L57.79,17.96L60.53,16.32L58.77,16.1L59.89,14.91L54.22,16.19L59.14,13.53L58.61,12.9L55.73,13.28L55.47,12.58L48.45,14.99L54.29,11.48L51.36,12.1L47.9,13.1L48.87,11.83L44.49,13.49L46.63,11.55L45.48,11.46L45.53,10.66L42.99,11.5L42.94,10.78L43.43,9.67L39.78,11.47L40.56,10.14L38.22,11.15L39.91,9.05L39.7,8.4L38.48,8.59L37.21,8.86L37.45,7.8L36.21,7.21L34.39,8.15L33.88,7.8L31.05,9.99L34.21,5.55L31.39,7.86L28.84,9.17L27.63,9.84L27.01,9.77L27.71,7.82L26.13,9.16L27.36,6.22L25.39,7.16L23.03,10.18L23.48,8.26L20.48,12.96L22.26,8.24L21.36,8.9L21.69,6.79L19.36,10.97L19.67,8.82L18.69,9.97L18.67,8.45L16.29,12.85L17.25,7.57L14.72,13.91L14.65,12.13L13.9,11.15L13.17,13.1L12.85,12.1L12.24,13.96L12.05,10.71L11.48,13L11.07,12.01L10.63,12.51L10.24,14.63L9.88,15.34L9.48,15.02L9.56,20.29L7.83,14.25L8.13,18.26L7.99,19.13L7.29,17.29L7.01,20.83L5.13,16.05L6.62,21.25L6.03,21.12L4.47,18.15L6.58,23.98L5.27,21.83L3.31,19.88L4.24,21.96L5.47,24.33L3.53,21.75L3.39,21.99L5.97,26.22L5.33,25.89L4.14,24.73L6.26,27.42L2.34,23.62L5.15,26.81L3.5,25.37L4.01,26.11L3.72,26.05L1.3,24.13L7.01,29.41L3.21,26.68L2.05,26.02L7.18,29.92L4.95,28.98L3.39,28.2L7.28,30.52L2.54,28.2L4.06,29.12L2.03,28.27L6.53,30.65L4.6,30.25L3.64,30.03L6.62,31.1L2.21,29.81L4.87,31.25L2.45,30.88L4.32,31.32L2.18,31.08L3.11,31.44L0,31.2L6.16,32.08L5.01,32.08L1.99,32.03L7.11,32.49L1.74,32.76L1.57,33.02L6.71,32.94L2.63,33.63L2.32,33.92L4.96,33.51L4.28,33.84L0.8,34.78L1.02,34.88L2.65,34.58L6.23,33.66L2.71,35.2L2.37,35.46L7.64,33.87L4.44,35.59L4.39,35.74L1.64,37.4L6.08,35.12L5.43,35.86L3.36,37.42L6.71,35.3L6.68,35.88L5.58,37.01L4.68,38.24L7.02,36.07L8.18,34.97L3.59,40.11L6.97,37.24L5.12,39.98L5.39,39.92L6.91,37.95L8.1,36.51L6.69,39.11L7.58,37.85L5.7,41.64L5.92,41.66L7.61,38.65L6.45,41.54L8.99,36.19L8.16,39.24L7.66,41.22L7.6,42.07L8.85,38.53L7.75,45.38L8.97,40.72L8.87,42.37L9.71,40.77L9.76,42.29L6.92,88.8L8.3,85.47L10.63,90.07L11.8,85.9L13.06,87.82L13.98,83.41L14.84,80.36L15.91,80.5L18.65,72.75L19.41,72.1L20.1,71.24L19.23,64.64L21.23,69L21.07,65.78L21.49,64.69L22.3,64.84L22.94,60.88L42.92,103.1L44.91,103.55L45.41,101L49.54,105.45L48.96,101L51.46,102.17L52.44,100.71L54.12,100.41L56.96,101.84L59.59,102.78L61.2,102.19L61.03,99.24L62.37,98.37L64.84,98.91L62.37,93.52L61.63,90.43L62.74,89.55L57.75,80.45L60.44,81.41L60.05,79.32L56.95,74.85L59.19,75.37L57.02,72.03L61.89,74.69L63.09,74.19L63.33,72.94L65.04,72.83L67.61,73.27L68.15,72.23L72.09,72.05L76.92,73.66L77.31,72.43L79.41,72.21L78.74,70.4L79.57,69.44L75.68,66.05L78.61,66.24L79.06,63.87L77.99,62.14L76.6,60.34L79.38,60.3L78.75,57.7L78.93,56.62L73.61,52.67L74.68,51.98L72.53,50.34L77.41,50.71L71.46,47.21L74.78,47.05L75.88,46.32L72.24,44.63L75.7,44.36L74.67,43.24L73.74,42.16L74.73,41.4L76.08,40.65L70.46,39.09L75.58,38.74L72.39,37.56L62.99,35.31L62.44,34.55L56.89,33.03" style="vector-effect: non-scaling-stroke; fill: none; stroke: rgb(208, 2, 27); stroke-opacity: 1; stroke-width: 2px; opacity: 1;"/></g><g class="points"/><g class="text"/></g><g class="trace scatter traceaf330d" style="stroke-miterlimit: 2; opacity: 1;"><g class="fills"/><g class="errorbars"/><g class="lines"><path class="js-line" d="M58.94,32.39L57.36,28.47L57.97,27.76L58.26,26.38L58.07,25.72L58.06,24.35L59.86,23.33L60.62,22.45L60.07,21.83L58.7,19.94L58.83,19.16L56.93,13.59L56.95,12.76L56.42,11.32L49.19,13.92L44.15,10.76L43.46,10.43L36.88,8.32L36.12,8.18L29.25,7.68L28.5,7.71L21.36,8.89L20.69,9.09L14.23,11.95L13.73,12.27L9.18,15.93L8.86,16.27L5.48,21.13L5.34,21.42L3.82,26.36L3.79,26.55L3.91,32.01L3.93,32.11L5.35,36.45L5.4,36.55L8.81,41.51L8.98,41.7L9.54,42.27L5.64,89.24L10.63,88.94L11.82,86.89L18.57,72.36L19.13,70.81L22.8,60.57L43.18,103.67L62.3,100.91L62.89,99.04L63.46,97.22L63.25,94.55L59.75,75.86L59.82,74.42L69.09,72.89L71.08,72.81L78.77,71.84L79.89,71.04L79.81,68.19L79.45,66.66L77.06,55.96L76.92,54.81L74.54,44.15L74.36,43.18L74.19,39.51L73.64,38.55L72.42,37.56L68.84,36.45L59.92,33.07" style="vector-effect: non-scaling-stroke; fill: none; stroke: rgb(51, 101, 152); stroke-opacity: 1; stroke-width: 2px; opacity: 1;"/></g><g class="points"/><g class="text"/></g></g></g><g class="overplot"/><path class="xlines-above crisp" d="M0,0" style="fill: none;"/><path class="ylines-above crisp" d="M0,0" style="fill: none;"/><g class="overlines-above"/><g class="xaxislayer-above"/><g class="yaxislayer-above"/><g class="overaxes-above"/></g></g><g class="polarlayer"/><g class="ternarylayer"/><g class="geolayer"/><g class="funnelarealayer"/><g class="pielayer"/><g class="treemaplayer"/><g class="sunburstlayer"/><g class="glimages"/><defs id="topdefs-e0ade6"><g class="clips"/></defs><g class="layer-above"><g class="imagelayer"/><g class="shapelayer"/></g><g class="infolayer"><g class="g-gtitle"/><g class="g-xtitle" transform="translate(0,-38)"><text class="xtitle" x="40" y="149" text-anchor="middle" style="font-family: 'Open Sans', verdana, arial, sans-serif; font-size: 14px; fill: rgb(68, 68, 68); opacity: 1; font-weight: normal; white-space: pre;"><tspan class="line" dy="0em" x="40" y="149"></tspan><tspan class="line" dy="1.3em" x="40" y="149"></tspan></text></g><g class="g-ytitle" transform="translate(86.5,0)"><text class="ytitle" transform="rotate(-90,-31,55.5)" x="-31" y="55.5" text-anchor="middle" style="font-family: 'Open Sans', verdana, arial, sans-serif; font-size: 14px; fill: rgb(68, 68, 68); opacity: 1; font-weight: normal; white-space: pre;"><tspan class="line" dy="0em" x="-31" y="55.5"></tspan><tspan class="line" dy="1.3em" x="-31" y="55.5"></tspan></text></g></g></svg></g>
        <svg xmlns="http://www.w3.org/2000/svg" class="role-diagram-draw-area"><g class="shapes-region" style="stroke: black; fill: none;"><g class="composite-shape"><path class="real" d=" M58,29.6 L300.2,29.6 L300.2,166.6 L58,166.6 Z" style="stroke-width: 1; stroke: rgb(0, 0, 0); fill: none; fill-opacity: 1;"/></g><g class="composite-shape"><rect class="real" rx="0" ry="0" x="70.1885986328125" y="36" width="100.79998779296875" height="123.66666412353516" style="stroke: none;"/></g><g class="composite-shape"><rect class="real" rx="0" ry="0" x="210.1885986328125" y="46" width="79.79998779296875" height="110.66666412353516" style="stroke: none;"/></g><g class="composite-shape"><path class="real" d=" M180.19,94.42 L194.59,94.42 L194.59,92 L204.19,96.83 L194.59,101.67 L194.59,99.25 L180.19,99.25 Z" style="stroke-width: 1; stroke: rgb(0, 0, 0); fill: none; fill-opacity: 1;"/></g><g class="arrow-line"><path class="connection real" stroke-dasharray="" d="  M123.19,81.71 L139.26,86.18" style="stroke: rgb(208, 2, 27); stroke-opacity: 1; stroke-width: 1; fill: none; fill-opacity: 1;"/><g stroke="rgb(208,2,27)" stroke-opacity="1" transform="matrix(-0.9635371107117886,-0.26757473027395257,0.26757473027395257,-0.9635371107117886,141.18856811523438,86.71428680419922)" style="stroke: rgb(208, 2, 27); stroke-width: 1;"><path d=" M10.93,-3.29 Q4.96,-0.45 0,0 Q4.96,0.45 10.93,3.29"/></g><g stroke="rgb(208,2,27)" stroke-opacity="1" fill="rgb(208,2,27)" fill-opacity="1" transform="matrix(0.9635371107117885,0.2675747302739527,-0.2675747302739527,0.9635371107117885,123.18856811523438,81.71428680419922)" style="stroke: rgb(208, 2, 27); fill: rgb(208, 2, 27); stroke-width: 1;"><circle cx="0" cy="0" r="3.35"/></g></g><g class="arrow-line"><path class="connection real" stroke-dasharray="" d="  M128.19,94.71 L143.61,106.63" style="stroke: rgb(51, 101, 152); stroke-opacity: 1; stroke-width: 1; fill: none; fill-opacity: 1;"/><g stroke="rgb(51,101,152)" stroke-opacity="1" transform="matrix(-0.7911167893138461,-0.6116651254287363,0.6116651254287363,-0.7911167893138461,145.18856811523438,107.857141494751)" style="stroke: rgb(51, 101, 152); stroke-width: 1;"><path d=" M10.93,-3.29 Q4.96,-0.45 0,0 Q4.96,0.45 10.93,3.29"/></g><g stroke="rgb(51,101,152)" stroke-opacity="1" fill="rgb(51,101,152)" fill-opacity="1" transform="matrix(0.7911167893138462,0.6116651254287361,-0.6116651254287361,0.7911167893138462,128.18856811523438,94.71428680419922)" style="stroke: rgb(51, 101, 152); fill: rgb(51, 101, 152); stroke-width: 1;"><circle cx="0" cy="0" r="3.35"/></g></g><g class="arrow-line"><path class="connection real" stroke-dasharray="" d="  M240.19,80.71 L256.26,85.18" style="stroke: rgb(208, 2, 27); stroke-opacity: 1; stroke-width: 1; fill: none; fill-opacity: 1;"/><g stroke="rgb(208,2,27)" stroke-opacity="1" transform="matrix(-0.9635371107117886,-0.26757473027395257,0.26757473027395257,-0.9635371107117886,258.1885681152344,85.71428680419922)" style="stroke: rgb(208, 2, 27); stroke-width: 1;"><path d=" M10.93,-3.29 Q4.96,-0.45 0,0 Q4.96,0.45 10.93,3.29"/></g><g stroke="rgb(208,2,27)" stroke-opacity="1" fill="rgb(208,2,27)" fill-opacity="1" transform="matrix(0.9635371107117885,0.2675747302739527,-0.2675747302739527,0.9635371107117885,240.18856811523438,80.71428680419922)" style="stroke: rgb(208, 2, 27); fill: rgb(208, 2, 27); stroke-width: 1;"><circle cx="0" cy="0" r="3.35"/></g></g><g class="arrow-line"><path class="connection real" stroke-dasharray="" d="  M240.19,81.71 L256.26,86.18" style="stroke: rgb(51, 101, 152); stroke-opacity: 1; stroke-width: 1; fill: none; fill-opacity: 1;"/><g stroke="rgb(51,101,152)" stroke-opacity="1" transform="matrix(-0.9635371107117886,-0.26757473027395257,0.26757473027395257,-0.9635371107117886,258.1885681152344,86.71428680419922)" style="stroke: rgb(51, 101, 152); stroke-width: 1;"><path d=" M10.93,-3.29 Q4.96,-0.45 0,0 Q4.96,0.45 10.93,3.29"/></g><g stroke="rgb(51,101,152)" stroke-opacity="1" fill="rgb(51,101,152)" fill-opacity="1" transform="matrix(0.9635371107117885,0.2675747302739527,-0.2675747302739527,0.9635371107117885,240.18856811523438,81.71428680419922)" style="stroke: rgb(51, 101, 152); fill: rgb(51, 101, 152); stroke-width: 1;"><circle cx="0" cy="0" r="3.35"/></g></g><g/></g><g/><g/><g/></svg>
        <svg xmlns="http://www.w3.org/2000/svg" xmlns:xlink="http://www.w3.org/1999/xlink" width="1127" height="691.15625" style="width:1127px;height:691.15625px;font-family:Asana-Math, Asana;background:#FFF;"></svg>
</svg>
